<?xml version="1.0" encoding="UTF-8" standalone="no"?>
<!DOCTYPE svg PUBLIC "-//W3C//DTD SVG 1.1//EN" "http://www.w3.org/Graphics/SVG/1.1/DTD/svg11.dtd">
<!-- Created with Vectornator (http://vectornator.io/) -->
<svg height="140.0pt" stroke-miterlimit="10" style="fill-rule:nonzero;clip-rule:evenodd;stroke-linecap:round;stroke-linejoin:round;" version="1.1" viewBox="0 0 140 140" width="140.0pt" xml:space="preserve" xmlns="http://www.w3.org/2000/svg" xmlns:xlink="http://www.w3.org/1999/xlink">
<defs/>
<g id="Untitled">
<path d="M0 70C0 41.9107 0 27.8661 6.73141 17.7772C9.6455 13.4096 13.3901 9.65956 17.7513 6.74122C27.8255 0 41.8498 0 69.8981 0C97.9464 0 111.971 0 122.045 6.74122C126.406 9.65956 130.15 13.4096 133.065 17.7772C139.796 27.8661 139.796 41.9107 139.796 70C139.796 98.0892 139.796 112.134 133.065 122.223C130.15 126.591 126.406 130.341 122.045 133.259C111.971 140 97.9464 140 69.8981 140C41.8498 140 27.8255 140 17.7513 133.259C13.3901 130.341 9.6455 126.591 6.73141 122.223C0 112.134 0 98.0892 0 70ZM53.2674 130.616C47.2613 130.527 42.2934 130.33 38.0253 129.895C30.489 129.127 26.1711 127.696 22.9162 125.518C19.57 123.279 16.697 120.402 14.4611 117.051C12.2862 113.791 10.8568 109.467 10.0902 101.919C9.65542 97.6396 9.45875 92.6576 9.36981 86.6328L30.341 86.6328C32.3016 98.3673 41.5499 107.629 53.2674 109.593L53.2674 130.616ZM62.5638 130.684L62.5638 109.593C75.7929 107.376 85.8748 95.856 85.8748 81.9779C85.8748 66.5139 73.3571 53.9779 57.9156 53.9779C44.0578 53.9779 32.5546 64.0745 30.341 77.3228L9.30206 77.3228C9.29682 75.0136 9.29645 72.5765 9.29645 70C9.29645 58.4127 9.30389 49.647 9.72838 42.6329L77.8865 42.6328C83.6664 42.6329 87.5339 42.6427 90.4152 43.0307C93.1628 43.4006 94.3079 44.0359 95.0551 44.7842C95.8023 45.5325 96.4366 46.6793 96.8061 49.4309C97.1934 52.3164 97.2033 56.1894 97.2033 61.9779L97.2032 113.978C97.2032 116.549 99.2843 118.633 101.852 118.633C104.419 118.633 106.5 116.549 106.5 113.978L106.5 61.6569C106.5 56.2739 106.5 51.7694 106.019 48.1903C105.511 44.4064 104.391 40.9674 101.629 38.201C98.8663 35.4346 95.4324 34.3124 91.6539 33.8037C88.08 33.3225 83.5824 33.3227 78.2072 33.3228L10.7315 33.3229C11.5598 28.585 12.7906 25.4533 14.4611 22.9495C16.697 19.5985 19.57 16.7213 22.9162 14.4822C26.1711 12.3041 30.489 10.8726 38.0253 10.1048C45.717 9.32125 55.6804 9.31001 69.8981 9.31001C84.1158 9.31001 94.0793 9.32125 101.771 10.1048C109.308 10.8726 113.625 12.3041 116.88 14.4822C120.226 16.7213 123.1 19.5985 125.335 22.9495C127.51 26.2093 128.939 30.5334 129.706 38.0807C130.489 45.7836 130.5 55.7616 130.5 70C130.5 84.2384 130.489 94.2164 129.706 101.919C128.939 109.467 127.51 113.791 125.335 117.051C123.1 120.402 120.226 123.279 116.88 125.518C113.625 127.696 109.308 129.127 101.771 129.895C94.0793 130.679 84.1158 130.69 69.8981 130.69C67.3171 130.69 64.8762 130.69 62.5638 130.684ZM57.9156 100.668C47.6084 100.668 39.2528 92.3001 39.2528 81.9779C39.2528 71.6557 47.6084 63.2879 57.9156 63.2879C68.2227 63.2879 76.5784 71.6557 76.5784 81.9779C76.5784 92.3001 68.2227 100.668 57.9156 100.668Z" fill="#000000" fill-rule="evenodd" opacity="1" stroke="none"/>
</g>
</svg>
